<svg width="17" height="19" viewBox="0 0 17 19" fill="none" xmlns="http://www.w3.org/2000/svg">
<path d="M14.5397 7.44165H8.16471C7.38231 7.44165 6.74805 8.15053 6.74805 9.02498V16.15C6.74805 17.0244 7.38231 17.7333 8.16471 17.7333H14.5397C15.3221 17.7333 15.9564 17.0244 15.9564 16.15V9.02498C15.9564 8.15053 15.3221 7.44165 14.5397 7.44165Z" stroke="#5272EF" stroke-width="1.5" stroke-linecap="round" stroke-linejoin="round"/>
<path d="M3.91406 12.1917H3.20573C2.83001 12.1917 2.46967 12.0249 2.20399 11.7279C1.93832 11.431 1.78906 11.0283 1.78906 10.6084V3.48336C1.78906 3.06343 1.93832 2.6607 2.20399 2.36377C2.46967 2.06684 2.83001 1.90002 3.20573 1.90002H9.58073C9.95645 1.90002 10.3168 2.06684 10.5825 2.36377C10.8481 2.6607 10.9974 3.06343 10.9974 3.48336V4.27502" stroke="#5272EF" stroke-width="1.5" stroke-linecap="round" stroke-linejoin="round"/>
</svg>
